<?xml version="1.0" encoding="utf-8"?>
<svg version="1.1" xmlns:xlink="http://www.w3.org/1999/xlink" width="60px" height="60px" xmlns="http://www.w3.org/2000/svg">
  <g transform="matrix(1 0 0 1 -30 -22 )">
    <path d="M 60 22  C 76.8 22  90 35.2  90 52  C 90 68.8  76.8 82  60 82  C 43.2 82  30 68.8  30 52  C 30 35.2  43.2 22  60 22  Z " fill-rule="nonzero" fill="#ffffff" stroke="none" />
    <path d="M 60 22.5  C 76.52 22.5  89.5 35.48  89.5 52  C 89.5 68.52  76.52 81.5  60 81.5  C 43.48 81.5  30.5 68.52  30.5 52  C 30.5 35.48  43.48 22.5  60 22.5  Z " stroke-width="1" stroke="#e6e6e6" fill="none" />
  </g>
</svg>