<?xml version="1.0" encoding="utf-8"?>
<svg version="1.1" xmlns:xlink="http://www.w3.org/1999/xlink" width="17px" height="10px" xmlns="http://www.w3.org/2000/svg">
  <g transform="matrix(1 0 0 1 -214 -305 )">
    <path d="M 16.8296593186373 8.1786941580756  C 16.9432197728791 8.29324169530355  17 8.42497136311569  17 8.57388316151203  C 17 8.72279495990836  16.9432197728791 8.8545246277205  16.8296593186373 8.96907216494845  L 15.9779559118236 9.82817869415807  C 15.8643954575818 9.94272623138602  15.7338009352037 10  15.5861723446894 10  C 15.438543754175 10  15.3079492317969 9.94272623138602  15.1943887775551 9.82817869415807  L 8.5 3.07560137457045  L 1.80561122244489 9.82817869415807  C 1.69205076820307 9.94272623138602  1.56145624582498 10  1.41382765531062 10  C 1.26619906479626 10  1.13560454241817 9.94272623138602  1.02204408817635 9.82817869415807  L 0.170340681362725 8.96907216494845  C 0.0567802271209086 8.8545246277205  0 8.72279495990836  0 8.57388316151203  C 0 8.42497136311569  0.0567802271209086 8.29324169530355  0.170340681362725 8.1786941580756  L 8.10821643286573 0.171821305841925  C 8.22177688710755 0.0572737686139735  8.35237140948564 0  8.5 0  C 8.64762859051436 0  8.77822311289245 0.0572737686139735  8.89178356713427 0.171821305841925  L 16.8296593186373 8.1786941580756  Z " fill-rule="nonzero" fill="#ffffff" stroke="none" transform="matrix(1 0 0 1 214 305 )" />
  </g>
</svg>