<?xml version="1.0" encoding="utf-8"?>
<svg version="1.1" xmlns:xlink="http://www.w3.org/1999/xlink" width="50px" height="50px" xmlns="http://www.w3.org/2000/svg">
  <g transform="matrix(1 0 0 1 -15 -16 )">
    <path d="M 15 16  L 65 16  L 65 66  L 15 66  L 15 16  " fill-rule="nonzero" fill="#cccccc" stroke="none" />
    <path d="M 19 20  L 61 20  L 61 62  L 19 62  L 19 20  " fill-rule="nonzero" fill="#ffffff" stroke="none" />
    <path d="M 44.75 31  C 42.65 31  41 29.35  41 27.25  C 41 25.15  42.65 23.5  44.75 23.5  C 46.85 23.5  48.5 25.15  48.5 27.25  C 48.5 29.35  46.85 31  44.75 31  " fill-rule="nonzero" fill="#cccccc" stroke="none" />
    <path d="M 21 61  L 21 39.55  L 30.75 29.8  L 44.4 37.6  L 52.2 35.65  L 60 37.6  L 60 61  L 21 61  " fill-rule="nonzero" fill="#169bd5" stroke="none" />
  </g>
</svg>