<?xml version="1.0" encoding="utf-8"?>
<svg version="1.1" xmlns:xlink="http://www.w3.org/1999/xlink" width="12px" height="12px" viewBox="120 1146  12 12" xmlns="http://www.w3.org/2000/svg">
  <path d="M 126 1146  C 129.36 1146  132 1148.64  132 1152  C 132 1155.36  129.36 1158  126 1158  C 122.64 1158  120 1155.36  120 1152  C 120 1148.64  122.64 1146  126 1146  Z " fill-rule="nonzero" fill="#ffffff" stroke="none" />
  <path d="M 126 1146.5  C 129.08 1146.5  131.5 1148.92  131.5 1152  C 131.5 1155.08  129.08 1157.5  126 1157.5  C 122.92 1157.5  120.5 1155.08  120.5 1152  C 120.5 1148.92  122.92 1146.5  126 1146.5  Z " stroke-width="1" stroke="#797979" fill="none" />
  <path d="M 126 1155  C 124.32 1155  123 1153.68  123 1152  C 123 1150.32  124.32 1149  126 1149  C 127.68 1149  129 1150.32  129 1152  C 129 1153.68  127.68 1155  126 1155  " fill-rule="nonzero" fill="#797979" stroke="none" />
</svg>