<?xml version="1.0" encoding="utf-8"?>
<svg version="1.1" xmlns:xlink="http://www.w3.org/1999/xlink" width="12px" height="12px" viewBox="120 1522  12 12" xmlns="http://www.w3.org/2000/svg">
  <path d="M 126 1522  C 129.36 1522  132 1524.64  132 1528  C 132 1531.36  129.36 1534  126 1534  C 122.64 1534  120 1531.36  120 1528  C 120 1524.64  122.64 1522  126 1522  Z " fill-rule="nonzero" fill="#ffffff" stroke="none" />
  <path d="M 126 1522.5  C 129.08 1522.5  131.5 1524.92  131.5 1528  C 131.5 1531.08  129.08 1533.5  126 1533.5  C 122.92 1533.5  120.5 1531.08  120.5 1528  C 120.5 1524.92  122.92 1522.5  126 1522.5  Z " stroke-width="1" stroke="#797979" fill="none" />
  <path d="M 126 1531  C 124.32 1531  123 1529.68  123 1528  C 123 1526.32  124.32 1525  126 1525  C 127.68 1525  129 1526.32  129 1528  C 129 1529.68  127.68 1531  126 1531  " fill-rule="nonzero" fill="#797979" stroke="none" />
</svg>