<?xml version="1.0" encoding="utf-8"?>
<svg version="1.1" xmlns:xlink="http://www.w3.org/1999/xlink" width="12px" height="12px" viewBox="120 1222  12 12" xmlns="http://www.w3.org/2000/svg">
  <path d="M 126 1222  C 129.36 1222  132 1224.64  132 1228  C 132 1231.36  129.36 1234  126 1234  C 122.64 1234  120 1231.36  120 1228  C 120 1224.64  122.64 1222  126 1222  Z " fill-rule="nonzero" fill="#ffffff" stroke="none" />
  <path d="M 126 1222.5  C 129.08 1222.5  131.5 1224.92  131.5 1228  C 131.5 1231.08  129.08 1233.5  126 1233.5  C 122.92 1233.5  120.5 1231.08  120.5 1228  C 120.5 1224.92  122.92 1222.5  126 1222.5  Z " stroke-width="1" stroke="#797979" fill="none" />
  <path d="M 126 1231  C 124.32 1231  123 1229.68  123 1228  C 123 1226.32  124.32 1225  126 1225  C 127.68 1225  129 1226.32  129 1228  C 129 1229.68  127.68 1231  126 1231  " fill-rule="nonzero" fill="#797979" stroke="none" />
</svg>