<?xml version="1.0" encoding="utf-8"?>
<svg version="1.1" xmlns:xlink="http://www.w3.org/1999/xlink" width="60px" height="30px" xmlns="http://www.w3.org/2000/svg">
  <g transform="matrix(1 0 0 1 -170 -43 )">
    <path d="M 170 43  L 230 43  L 230 73  L 170 73  L 170 43  " fill-rule="nonzero" fill="#cccccc" stroke="none" />
    <path d="M 172 45  L 228 45  L 228 71  L 172 71  L 172 45  " fill-rule="nonzero" fill="#ffffff" stroke="none" />
    <path d="M 203.45 52  C 202.19 52  201.2 51.01  201.2 49.75  C 201.2 48.49  202.19 47.5  203.45 47.5  C 204.71 47.5  205.7 48.49  205.7 49.75  C 205.7 51.01  204.71 52  203.45 52  " fill-rule="nonzero" fill="#cccccc" stroke="none" />
    <path d="M 173 70  L 173 56.8  L 186.5 50.8  L 205.4 62.8  L 216.2 54.4  L 227 62.8  L 227 70  L 173 70  " fill-rule="nonzero" fill="#169bd5" stroke="none" />
  </g>
</svg>