<?xml version="1.0" encoding="utf-8"?>
<svg version="1.1" xmlns:xlink="http://www.w3.org/1999/xlink" width="12px" height="12px" viewBox="120 554  12 12" xmlns="http://www.w3.org/2000/svg">
  <path d="M 126 554  C 129.36 554  132 556.64  132 560  C 132 563.36  129.36 566  126 566  C 122.64 566  120 563.36  120 560  C 120 556.64  122.64 554  126 554  Z " fill-rule="nonzero" fill="#ffffff" stroke="none" />
  <path d="M 126 554.5  C 129.08 554.5  131.5 556.92  131.5 560  C 131.5 563.08  129.08 565.5  126 565.5  C 122.92 565.5  120.5 563.08  120.5 560  C 120.5 556.92  122.92 554.5  126 554.5  Z " stroke-width="1" stroke="#797979" fill="none" />
  <path d="M 126 563  C 124.32 563  123 561.68  123 560  C 123 558.32  124.32 557  126 557  C 127.68 557  129 558.32  129 560  C 129 561.68  127.68 563  126 563  " fill-rule="nonzero" fill="#797979" stroke="none" />
</svg>