<?xml version="1.0" encoding="utf-8"?>
<svg version="1.1" xmlns:xlink="http://www.w3.org/1999/xlink" width="12px" height="12px" viewBox="120 964  12 12" xmlns="http://www.w3.org/2000/svg">
  <path d="M 126 964  C 129.36 964  132 966.64  132 970  C 132 973.36  129.36 976  126 976  C 122.64 976  120 973.36  120 970  C 120 966.64  122.64 964  126 964  Z " fill-rule="nonzero" fill="#ffffff" stroke="none" />
  <path d="M 126 964.5  C 129.08 964.5  131.5 966.92  131.5 970  C 131.5 973.08  129.08 975.5  126 975.5  C 122.92 975.5  120.5 973.08  120.5 970  C 120.5 966.92  122.92 964.5  126 964.5  Z " stroke-width="1" stroke="#797979" fill="none" />
  <path d="M 126 973  C 124.32 973  123 971.68  123 970  C 123 968.32  124.32 967  126 967  C 127.68 967  129 968.32  129 970  C 129 971.68  127.68 973  126 973  " fill-rule="nonzero" fill="#797979" stroke="none" />
</svg>