<?xml version="1.0" encoding="utf-8"?>
<svg version="1.1" xmlns:xlink="http://www.w3.org/1999/xlink" width="12px" height="12px" viewBox="120 926  12 12" xmlns="http://www.w3.org/2000/svg">
  <path d="M 126 926  C 129.36 926  132 928.64  132 932  C 132 935.36  129.36 938  126 938  C 122.64 938  120 935.36  120 932  C 120 928.64  122.64 926  126 926  Z " fill-rule="nonzero" fill="#ffffff" stroke="none" />
  <path d="M 126 926.5  C 129.08 926.5  131.5 928.92  131.5 932  C 131.5 935.08  129.08 937.5  126 937.5  C 122.92 937.5  120.5 935.08  120.5 932  C 120.5 928.92  122.92 926.5  126 926.5  Z " stroke-width="1" stroke="#797979" fill="none" />
  <path d="M 126 935  C 124.32 935  123 933.68  123 932  C 123 930.32  124.32 929  126 929  C 127.68 929  129 930.32  129 932  C 129 933.68  127.68 935  126 935  " fill-rule="nonzero" fill="#797979" stroke="none" />
</svg>