<?xml version="1.0" encoding="utf-8"?>
<svg version="1.1" xmlns:xlink="http://www.w3.org/1999/xlink" width="12px" height="12px" viewBox="120 872  12 12" xmlns="http://www.w3.org/2000/svg">
  <path d="M 126 872  C 129.36 872  132 874.64  132 878  C 132 881.36  129.36 884  126 884  C 122.64 884  120 881.36  120 878  C 120 874.64  122.64 872  126 872  Z " fill-rule="nonzero" fill="#ffffff" stroke="none" />
  <path d="M 126 872.5  C 129.08 872.5  131.5 874.92  131.5 878  C 131.5 881.08  129.08 883.5  126 883.5  C 122.92 883.5  120.5 881.08  120.5 878  C 120.5 874.92  122.92 872.5  126 872.5  Z " stroke-width="1" stroke="#797979" fill="none" />
  <path d="M 126 881  C 124.32 881  123 879.68  123 878  C 123 876.32  124.32 875  126 875  C 127.68 875  129 876.32  129 878  C 129 879.68  127.68 881  126 881  " fill-rule="nonzero" fill="#797979" stroke="none" />
</svg>