<?xml version="1.0" encoding="utf-8"?>
<svg version="1.1" xmlns:xlink="http://www.w3.org/1999/xlink" width="139px" height="139px" xmlns="http://www.w3.org/2000/svg">
  <g transform="matrix(1 0 0 1 -118 -270 )">
    <path d="M 26 101  L 38 101  L 38 113  L 26 113  L 26 101  Z M 26 26  L 38 26  L 38 38  L 26 38  L 26 26  Z M 101 26  L 113 26  L 113 38  L 101 38  L 101 26  Z M 13 88  L 13 126  L 51 126  L 51 88  L 13 88  Z M 13 13  L 13 51  L 51 51  L 51 13  L 13 13  Z M 88 13  L 88 51  L 126 51  L 126 13  L 88 13  Z M 0 75  L 64 75  L 64 139  L 0 139  L 0 75  Z M 101 126  L 113 126  L 113 139  L 101 139  L 101 126  Z M 126 126  L 139 126  L 139 139  L 126 139  L 126 126  Z M 126 75  L 139 75  L 139 113  L 101 113  L 101 101  L 88 101  L 88 139  L 75 139  L 75 75  L 113 75  L 113 88  L 126 88  L 126 75  Z M 0 0  L 64 0  L 64 64  L 0 64  L 0 0  Z M 75 0  L 139 0  L 139 64  L 75 64  L 75 0  Z " fill-rule="nonzero" fill="#000000" stroke="none" transform="matrix(1 0 0 1 118 270 )" />
  </g>
</svg>