<?xml version="1.0" encoding="utf-8"?>
<svg version="1.1" xmlns:xlink="http://www.w3.org/1999/xlink" width="20px" height="20px" xmlns="http://www.w3.org/2000/svg">
  <g transform="matrix(1 0 0 1 -16 -381 )">
    <path d="M 10 20  C 4.47715250200002 20  0 15.522847498  0 10  C 0 4.477152502  4.47715250200002 0  10 0  C 15.522847498 0  20 4.477152502  20 10  C 20 15.522847498  15.522847498 20  10 20  Z M 10.0000000000001 18.8  C 14.8601057982031 18.8  18.8000000000001 14.8601057982031  18.8000000000001 10.0000000000001  C 18.8000000000001 5.13989420179701  14.8601057982031 1.20000000000005  10.0000000000001 1.20000000000005  C 5.13989420179701 1.20000000000005  1.20000000000005 5.13989420179701  1.20000000000005 10.0000000000001  C 1.20000000000005 14.8601057982031  5.13989420179701 18.8  10.0000000000001 18.8  Z M 10.599999666214 8  L 10.599999666214 15  L 9.39999961853027 15  L 9.39999961853027 8  L 10.599999666214 8  Z M 10 7  C 9.44771525020002 7  9 6.55228474980001  9 6  C 9 5.44771525019999  9.44771525020002 5  10 5  C 10.5522847498 5  11 5.44771525019999  11 6  C 11 6.55228474980001  10.5522847498 7  10 7  Z " fill-rule="nonzero" fill="#000000" stroke="none" fill-opacity="0.301960784313725" transform="matrix(1 0 0 1 16 381 )" />
  </g>
</svg>