<?xml version="1.0" encoding="utf-8"?>
<svg version="1.1" xmlns:xlink="http://www.w3.org/1999/xlink" width="375px" height="136px" xmlns="http://www.w3.org/2000/svg">
  <g>
    <path d="M 0 0  L 375 0  L 375 136  L 0 136  L 0 0  " fill-rule="nonzero" fill="#cccccc" stroke="none" />
    <path d="M 10 10  L 365 10  L 365 126  L 10 126  L 10 10  " fill-rule="nonzero" fill="#ffffff" stroke="none" />
    <path d="M 205.2 40.8  C 199.488 40.8  195 36.312  195 30.6  C 195 24.888  199.488 20.4  205.2 20.4  C 210.912 20.4  215.4 24.888  215.4 30.6  C 215.4 36.312  210.912 40.8  205.2 40.8  " fill-rule="nonzero" fill="#cccccc" stroke="none" />
    <path d="M 14 123  L 14 63.05  L 101 35.8  L 222.8 99.2816  L 292.4 52.15  L 362 99.2816  L 362 123  L 14 123  " fill-rule="nonzero" fill="#169bd5" stroke="none" />
  </g>
</svg>