<?xml version="1.0" encoding="utf-8"?>
<svg version="1.1" xmlns:xlink="http://www.w3.org/1999/xlink" width="20px" height="30px" xmlns="http://www.w3.org/2000/svg">
  <g transform="matrix(1 0 0 1 -260 -350 )">
    <path d="M 14.74609375 15.8766233766234  L 0.87890625 29.7077922077922  C 0.631510416666667 29.9545454545455  0.423177083333333 30.038961038961  0.25390625 29.961038961039  C 0.0846354166666667 29.8831168831169  0 29.6753246753247  0 29.3376623376623  L 0 0.662337662337661  C 0 0.324675324675322  0.0846354166666667 0.116883116883115  0.25390625 0.0389610389610373  C 0.423177083333333 -0.0389610389610406  0.631510416666667 0.0454545454545441  0.87890625 0.292207792207791  L 14.74609375 14.1233766233766  C 14.86328125 14.2402597402597  14.9479166666667 14.3636363636364  15 14.4935064935065  L 15 1.28571428571428  C 15 0.948051948051946  15.1236979166667 0.655844155844154  15.37109375 0.40909090909091  C 15.6184895833333 0.162337662337659  15.9114583333333 0.0389610389610373  16.25 0.0389610389610373  L 18.75 0.0389610389610373  C 19.0885416666667 0.0389610389610373  19.3815104166667 0.162337662337659  19.62890625 0.40909090909091  C 19.8763020833333 0.655844155844154  20 0.948051948051946  20 1.28571428571428  L 20 28.7142857142857  C 20 29.0519480519481  19.8763020833333 29.3441558441558  19.62890625 29.5909090909091  C 19.3815104166667 29.8376623376623  19.0885416666667 29.961038961039  18.75 29.961038961039  L 16.25 29.961038961039  C 15.9114583333333 29.961038961039  15.6184895833333 29.8376623376623  15.37109375 29.5909090909091  C 15.1236979166667 29.3441558441558  15 29.0519480519481  15 28.7142857142857  L 15 15.5064935064935  C 14.9479166666667 15.6363636363636  14.86328125 15.7597402597403  14.74609375 15.8766233766234  Z " fill-rule="nonzero" fill="#000000" stroke="none" transform="matrix(1 0 0 1 260 350 )" />
  </g>
</svg>