<?xml version="1.0" encoding="utf-8"?>
<svg version="1.1" xmlns:xlink="http://www.w3.org/1999/xlink" width="333px" height="170px" xmlns="http://www.w3.org/2000/svg">
  <g transform="matrix(1 0 0 1 -20 -461 )">
    <path d="M 20 461  L 353 461  L 353 631  L 20 631  L 20 461  " fill-rule="nonzero" fill="#cccccc" stroke="none" />
    <path d="M 32 473  L 341 473  L 341 619  L 32 619  L 32 473  " fill-rule="nonzero" fill="#ffffff" stroke="none" />
    <path d="M 205.91 512  C 198.77 512  193.16 506.39  193.16 499.25  C 193.16 492.11  198.77 486.5  205.91 486.5  C 213.05 486.5  218.66 492.11  218.66 499.25  C 218.66 506.39  213.05 512  205.91 512  " fill-rule="nonzero" fill="#cccccc" stroke="none" />
    <path d="M 37 615  L 37 539.65  L 112 505.4  L 217 573.036036036036  L 277 525.95  L 337 573.036036036036  L 337 615  L 37 615  " fill-rule="nonzero" fill="#169bd5" stroke="none" />
  </g>
</svg>