<?xml version="1.0" encoding="utf-8"?>
<svg version="1.1" xmlns:xlink="http://www.w3.org/1999/xlink" width="50px" height="50px" xmlns="http://www.w3.org/2000/svg">
  <g transform="matrix(1 0 0 1 -32 -542 )">
    <path d="M 57 542  C 71 542  82 553  82 567  C 82 581  71 592  57 592  C 43 592  32 581  32 567  C 32 553  43 542  57 542  Z " fill-rule="nonzero" fill="#ffffff" stroke="none" />
    <path d="M 57 542.5  C 70.72 542.5  81.5 553.28  81.5 567  C 81.5 580.72  70.72 591.5  57 591.5  C 43.28 591.5  32.5 580.72  32.5 567  C 32.5 553.28  43.28 542.5  57 542.5  Z " stroke-width="1" stroke="#797979" fill="none" />
  </g>
</svg>