<?xml version="1.0" encoding="utf-8"?>
<svg version="1.1" xmlns:xlink="http://www.w3.org/1999/xlink" width="50px" height="50px" xmlns="http://www.w3.org/2000/svg">
  <g transform="matrix(1 0 0 1 -32 -20 )">
    <path d="M 57 20  C 71 20  82 31  82 45  C 82 59  71 70  57 70  C 43 70  32 59  32 45  C 32 31  43 20  57 20  Z " fill-rule="nonzero" fill="#ffffff" stroke="none" />
    <path d="M 57 20.5  C 70.72 20.5  81.5 31.28  81.5 45  C 81.5 58.72  70.72 69.5  57 69.5  C 43.28 69.5  32.5 58.72  32.5 45  C 32.5 31.28  43.28 20.5  57 20.5  Z " stroke-width="1" stroke="#797979" fill="none" />
  </g>
</svg>