<?xml version="1.0" encoding="utf-8"?>
<svg version="1.1" xmlns:xlink="http://www.w3.org/1999/xlink" width="12px" height="12px" viewBox="462 587  12 12" xmlns="http://www.w3.org/2000/svg">
  <path d="M 468 587  C 471.36 587  474 589.64  474 593  C 474 596.36  471.36 599  468 599  C 464.64 599  462 596.36  462 593  C 462 589.64  464.64 587  468 587  Z " fill-rule="nonzero" fill="#ffffff" stroke="none" />
  <path d="M 468 587.5  C 471.08 587.5  473.5 589.92  473.5 593  C 473.5 596.08  471.08 598.5  468 598.5  C 464.92 598.5  462.5 596.08  462.5 593  C 462.5 589.92  464.92 587.5  468 587.5  Z " stroke-width="1" stroke="#797979" fill="none" />
  <path d="M 468 596  C 466.32 596  465 594.68  465 593  C 465 591.32  466.32 590  468 590  C 469.68 590  471 591.32  471 593  C 471 594.68  469.68 596  468 596  " fill-rule="nonzero" fill="#797979" stroke="none" />
</svg>