<?xml version="1.0" encoding="utf-8"?>
<svg version="1.1" xmlns:xlink="http://www.w3.org/1999/xlink" width="12px" height="12px" viewBox="613 587  12 12" xmlns="http://www.w3.org/2000/svg">
  <path d="M 619 587  C 622.36 587  625 589.64  625 593  C 625 596.36  622.36 599  619 599  C 615.64 599  613 596.36  613 593  C 613 589.64  615.64 587  619 587  Z " fill-rule="nonzero" fill="#ffffff" stroke="none" />
  <path d="M 619 587.5  C 622.08 587.5  624.5 589.92  624.5 593  C 624.5 596.08  622.08 598.5  619 598.5  C 615.92 598.5  613.5 596.08  613.5 593  C 613.5 589.92  615.92 587.5  619 587.5  Z " stroke-width="1" stroke="#797979" fill="none" />
  <path d="M 619 596  C 617.32 596  616 594.68  616 593  C 616 591.32  617.32 590  619 590  C 620.68 590  622 591.32  622 593  C 622 594.68  620.68 596  619 596  " fill-rule="nonzero" fill="#797979" stroke="none" />
</svg>