<?xml version="1.0" encoding="utf-8"?>
<svg version="1.1" xmlns:xlink="http://www.w3.org/1999/xlink" width="60px" height="60px" xmlns="http://www.w3.org/2000/svg">
  <g transform="matrix(1 0 0 1 -30 -102 )">
    <path d="M 60 102  C 76.8 102  90 115.2  90 132  C 90 148.8  76.8 162  60 162  C 43.2 162  30 148.8  30 132  C 30 115.2  43.2 102  60 102  Z " fill-rule="nonzero" fill="#ffffff" stroke="none" />
    <path d="M 60 102.5  C 76.52 102.5  89.5 115.48  89.5 132  C 89.5 148.52  76.52 161.5  60 161.5  C 43.48 161.5  30.5 148.52  30.5 132  C 30.5 115.48  43.48 102.5  60 102.5  Z " stroke-width="1" stroke="#e6e6e6" fill="none" />
  </g>
</svg>