<?xml version="1.0" encoding="utf-8"?>
<svg version="1.1" xmlns:xlink="http://www.w3.org/1999/xlink" width="60px" height="60px" xmlns="http://www.w3.org/2000/svg">
  <g transform="matrix(1 0 0 1 -74 -222 )">
    <path d="M 104 222  C 120.8 222  134 235.2  134 252  C 134 268.8  120.8 282  104 282  C 87.2 282  74 268.8  74 252  C 74 235.2  87.2 222  104 222  Z " fill-rule="nonzero" fill="#ffffff" stroke="none" />
    <path d="M 104 222.5  C 120.52 222.5  133.5 235.48  133.5 252  C 133.5 268.52  120.52 281.5  104 281.5  C 87.48 281.5  74.5 268.52  74.5 252  C 74.5 235.48  87.48 222.5  104 222.5  Z " stroke-width="1" stroke="#bbbbbb" fill="none" />
  </g>
</svg>