<?xml version="1.0" encoding="utf-8"?>
<svg version="1.1" xmlns:xlink="http://www.w3.org/1999/xlink" width="51px" height="81px" xmlns="http://www.w3.org/2000/svg">
  <defs>
    <linearGradient gradientUnits="userSpaceOnUse" x1="1005" y1="330" x2="1005" y2="410" id="LinearGradient7">
      <stop id="Stop8" stop-color="#ffffff" offset="0" />
      <stop id="Stop9" stop-color="#f2f2f2" offset="0" />
      <stop id="Stop10" stop-color="#e4e4e4" offset="1" />
      <stop id="Stop11" stop-color="#ffffff" offset="1" />
    </linearGradient>
  </defs>
  <g transform="matrix(1 0 0 1 -980 -330 )">
    <path d="M 1005 330.5  C 1010.32 330.5  1014.5 334.68  1014.5 340  C 1014.5 345.32  1010.32 349.5  1005 349.5  C 999.68 349.5  995.5 345.32  995.5 340  C 995.5 334.68  999.68 330.5  1005 330.5  Z " fill-rule="nonzero" fill="url(#LinearGradient7)" stroke="none" />
    <path d="M 1005 330.5  C 1010.32 330.5  1014.5 334.68  1014.5 340  C 1014.5 345.32  1010.32 349.5  1005 349.5  C 999.68 349.5  995.5 345.32  995.5 340  C 995.5 334.68  999.68 330.5  1005 330.5  Z " stroke-width="1" stroke="#797979" fill="none" />
    <path d="M 980 360  L 1030 360  M 1005 350  L 1005 385  M 985 410  L 1005 385  M 1005 385  L 1025 410  " stroke-width="1" stroke="#797979" fill="none" />
  </g>
</svg>