<?xml version="1.0" encoding="utf-8"?>
<svg version="1.1" xmlns:xlink="http://www.w3.org/1999/xlink" width="41px" height="35px" xmlns="http://www.w3.org/2000/svg">
  <g transform="matrix(1 0 0 1 -167 -460 )">
    <path d="M 28.98828125 21.875  C 28.98828125 22.0724826388889  28.9120163690476 22.2471788194444  28.7594866071429 22.3990885416667  L 25.4190848214286 25.7259114583333  C 25.2665550595238 25.8778211805556  25.0911458333333 25.9537760416667  24.8928571428571 25.9537760416667  C 24.694568452381 25.9537760416667  24.5191592261905 25.8778211805556  24.3666294642857 25.7259114583333  L 20.5 21.875  L 16.6333705357143 25.7259114583333  C 16.4808407738095 25.8778211805556  16.3054315476191 25.9537760416667  16.1071428571429 25.9537760416667  C 15.9088541666667 25.9537760416667  15.7334449404762 25.8778211805556  15.5809151785714 25.7259114583333  L 12.2405133928571 22.3990885416667  C 12.0879836309524 22.2471788194444  12.01171875 22.0724826388889  12.01171875 21.875  C 12.01171875 21.6775173611111  12.0879836309524 21.5028211805556  12.2405133928571 21.3509114583333  L 16.1071428571429 17.5  L 12.2405133928571 13.6490885416667  C 12.0879836309524 13.4971788194444  12.01171875 13.3224826388889  12.01171875 13.125  C 12.01171875 12.9275173611111  12.0879836309524 12.7528211805556  12.2405133928571 12.6009114583333  L 15.5809151785714 9.27408854166667  C 15.7334449404762 9.12217881944444  15.9088541666667 9.04622395833333  16.1071428571429 9.04622395833333  C 16.3054315476191 9.04622395833333  16.4808407738095 9.12217881944444  16.6333705357143 9.27408854166667  L 20.5 13.125  L 24.3666294642857 9.27408854166667  C 24.5191592261905 9.12217881944444  24.694568452381 9.04622395833333  24.8928571428571 9.04622395833333  C 25.0911458333333 9.04622395833333  25.2665550595238 9.12217881944444  25.4190848214286 9.27408854166667  L 28.7594866071429 12.6009114583333  C 28.9120163690476 12.7528211805556  28.98828125 12.9275173611111  28.98828125 13.125  C 28.98828125 13.3224826388889  28.9120163690476 13.4971788194444  28.7594866071429 13.6490885416667  L 24.8928571428571 17.5  L 28.7594866071429 21.3509114583333  C 28.9120163690476 21.5028211805556  28.98828125 21.6775173611111  28.98828125 21.875  Z M 6 6  L 6 29  L 35 29  L 35 6  L 6 6  Z M 39.9246651785714 1.07096354166667  C 40.6415550595238 1.78493923611111  41 2.64322916666667  41 3.64583333333333  L 41 31.3541666666667  C 41 32.3567708333333  40.6415550595238 33.2150607638889  39.9246651785714 33.9290364583333  C 39.2077752976191 34.6430121527778  38.3459821428572 35  37.3392857142857 35  L 3.66071428571429 35  C 2.65401785714286 35  1.79222470238095 34.6430121527778  1.07533482142857 33.9290364583333  C 0.35844494047619 33.2150607638889  0 32.3567708333333  0 31.3541666666667  L 0 3.64583333333333  C 0 2.64322916666667  0.35844494047619 1.78493923611111  1.07533482142857 1.07096354166667  C 1.79222470238095 0.356987847222219  2.65401785714286 0  3.66071428571429 0  L 37.3392857142857 0  C 38.3459821428572 0  39.2077752976191 0.356987847222219  39.9246651785714 1.07096354166667  Z " fill-rule="nonzero" fill="#ffffff" stroke="none" transform="matrix(1 0 0 1 167 460 )" />
  </g>
</svg>